<svg xmlns="http://www.w3.org/2000/svg" viewBox="0 0 32 40" fill="none" x="0px" y="0px"><path fill-rule="evenodd" clip-rule="evenodd" d="M8.46447 22.4645C8.27316 22.2732 8.16753 22.0125 8.17169 21.742L8.26008 15.9967C8.26858 15.4445 8.72312 15.0037 9.27534 15.0122C9.82756 15.0207 10.2683 15.4753 10.2598 16.0275L10.2094 19.3051C10.7594 18.745 11.1153 17.9788 11.5103 17.0378C12.7418 14.1038 15.4115 13.6194 17.3456 13.2685C17.5911 13.2239 17.8247 13.1816 18.042 13.1366C19.1117 12.9152 19.8149 12.6628 20.2631 12.1836C20.6754 11.7428 21.0415 10.9137 20.9024 9.10613C20.8601 8.55548 21.2721 8.07474 21.8228 8.03238C22.3735 7.99002 22.8542 8.40208 22.8965 8.95274C23.0573 11.0426 22.6745 12.5334 21.7237 13.5499C20.8088 14.5279 19.5347 14.8701 18.4473 15.0951C18.1781 15.1508 17.9162 15.2015 17.662 15.2508C15.6639 15.6379 14.1432 15.9325 13.3544 17.8118C12.9702 18.7272 12.4868 19.8461 11.6235 20.7195L14.9014 20.6691C15.4537 20.6606 15.9082 21.1014 15.9167 21.6536C15.9252 22.2058 15.4844 22.6604 14.9322 22.6689L9.18695 22.7572C8.91644 22.7614 8.65577 22.6558 8.46447 22.4645Z" fill="black"/><text x="0" y="47" fill="#000000" font-size="5px" font-weight="bold" font-family="'Helvetica Neue', Helvetica, Arial-Unicode, Arial, Sans-serif">Created by Anarappi</text><text x="0" y="52" fill="#000000" font-size="5px" font-weight="bold" font-family="'Helvetica Neue', Helvetica, Arial-Unicode, Arial, Sans-serif">from the Noun Project</text></svg>